<svg width="123" height="122" viewBox="0 0 123 122" fill="none" xmlns="http://www.w3.org/2000/svg">
<path d="M1.25672 62.6541L120.117 121.464C120.344 121.577 120.591 121.643 120.844 121.66C121.096 121.677 121.35 121.643 121.59 121.561C121.83 121.48 122.051 121.351 122.241 121.183C122.431 121.016 122.586 120.812 122.697 120.584C122.839 120.313 122.914 120.011 122.914 119.704C122.914 119.397 122.839 119.095 122.697 118.824V118.824L91.8267 60.8241L122.697 2.82405C122.839 2.55269 122.914 2.25068 122.914 1.94405C122.914 1.63743 122.839 1.33541 122.697 1.06405C122.584 0.837902 122.428 0.636203 122.237 0.470519C122.046 0.304834 121.825 0.178422 121.585 0.0985282C121.346 0.0186344 121.092 -0.01317 120.84 0.00493811C120.588 0.0230462 120.343 0.0907107 120.117 0.204053L1.25672 59.0041C0.907544 59.1631 0.611503 59.4193 0.40391 59.742C0.196317 60.0647 0.0859375 60.4403 0.0859375 60.8241C0.0859375 61.2078 0.196317 61.5834 0.40391 61.9061C0.611503 62.2288 0.907544 62.485 1.25672 62.6441V62.6541Z" fill="white"/>
</svg>
