<svg width="123" height="122" viewBox="0 0 123 122" fill="none" xmlns="http://www.w3.org/2000/svg">
<path d="M121.743 59.0101L2.88328 0.200111C2.65628 0.0874701 2.40923 0.0208747 2.15637 0.00417328C1.90351 -0.0125281 1.64985 0.0209921 1.41001 0.102798C1.17017 0.184605 0.948891 0.313083 0.758942 0.48082C0.568993 0.648556 0.414128 0.852232 0.303276 1.08011C0.16051 1.35147 0.085907 1.65349 0.085907 1.96011C0.085907 2.26674 0.16051 2.56875 0.303276 2.84011V2.84011L31.1733 60.8401L0.303276 118.84C0.16051 119.111 0.085907 119.413 0.085907 119.72C0.085907 120.027 0.16051 120.329 0.303276 120.6C0.415907 120.826 0.572062 121.028 0.762794 121.194C0.953527 121.359 1.17508 121.486 1.41476 121.566C1.65445 121.646 1.90754 121.677 2.15954 121.659C2.41153 121.641 2.65748 121.573 2.88328 121.46L121.743 62.6601C122.092 62.501 122.388 62.2448 122.596 61.9221C122.804 61.5994 122.914 61.2238 122.914 60.8401C122.914 60.4564 122.804 60.0808 122.596 59.7581C122.388 59.4354 122.092 59.1792 121.743 59.0201V59.0101Z" fill="white"/>
</svg>
