<svg width="25" height="17" viewBox="0 0 25 17" fill="none" xmlns="http://www.w3.org/2000/svg">
<path d="M0.538706 8.86966C0.538706 9.69809 1.21028 10.3697 2.0387 10.3697L16.101 10.3697C16.5465 10.3697 16.7696 10.9082 16.4546 11.2232L14.4512 13.2267C13.8654 13.8125 13.8654 14.7622 14.4512 15.348L14.9635 15.8604C15.5493 16.4462 16.4991 16.4462 17.0849 15.8604L23.3771 9.56815L23.0235 9.21459L23.3771 9.56814C23.9629 8.98236 23.9629 8.03261 23.3771 7.44682L17.0849 1.15467C16.4991 0.568883 15.5493 0.568886 14.9635 1.15468L14.4512 1.66705C13.8654 2.25284 13.8654 3.20258 14.4512 3.78836L16.4543 5.79147C16.7693 6.10645 16.5462 6.64503 16.1007 6.64503L2.03871 6.64503C1.21028 6.64503 0.538707 7.3166 0.538707 8.14502L0.538706 8.86966Z" fill="#2C3C8C" stroke="#2C3C8C"/>
</svg>
