<svg width="25" height="17" viewBox="0 0 25 17" fill="none" xmlns="http://www.w3.org/2000/svg">
<path d="M1.39224 7.43936L1.72812 7.77524L1.39224 7.43936C0.806456 8.02515 0.806459 8.9749 1.39225 9.56069L7.68446 15.8528C8.27025 16.4386 9.22 16.4386 9.80578 15.8528L10.3181 15.3405C10.9039 14.7547 10.9039 13.8049 10.3181 13.2191L8.31504 11.216C8.00006 10.9011 8.22314 10.3625 8.66859 10.3625H22.7306C23.559 10.3625 24.2306 9.69091 24.2306 8.86248V8.13784C24.2306 7.30942 23.559 6.63784 22.7306 6.63784H8.66827C8.22282 6.63784 7.99973 6.09927 8.31471 5.78429L10.3181 3.78084C10.9039 3.19505 10.9039 2.24532 10.3182 1.65953L9.80579 1.14715C9.22 0.561354 8.27025 0.561349 7.68445 1.14714L1.39224 7.43936Z" fill="#2C3C8C" stroke="#2C3C8C"/>
</svg>
