<svg width="25" height="17" viewBox="0 0 25 17" fill="none" xmlns="http://www.w3.org/2000/svg">
<path d="M1.39222 7.43185L1.7281 7.76773L1.39222 7.43186C0.806433 8.01764 0.806436 8.96739 1.39223 9.55318L7.68444 15.8453C8.27023 16.4311 9.21997 16.4311 9.80576 15.8453L10.3181 15.3329C10.9039 14.7472 10.9039 13.7974 10.3181 13.2116L8.31501 11.2085C8.00003 10.8935 8.22311 10.355 8.66857 10.355H22.7306C23.559 10.355 24.2306 9.6834 24.2306 8.85497V8.13034C24.2306 7.30191 23.559 6.63034 22.7306 6.63034H8.66824C8.22279 6.63034 7.99971 6.09177 8.31469 5.77678L10.3181 3.77333C10.9039 3.18754 10.9039 2.23781 10.3181 1.65202L9.80576 1.13964C9.21998 0.553847 8.27022 0.553842 7.68443 1.13963L1.39222 7.43185Z" fill="#2C3C8C" stroke="#2C3C8C"/>
</svg>
