<svg width="45" height="46" viewBox="0 0 45 46" fill="none" xmlns="http://www.w3.org/2000/svg">
<g clip-path="url(#clip0_428_156)">
<path fill-rule="evenodd" clip-rule="evenodd" d="M26.7797 6.49426C28.2156 6.93502 29.5873 7.57056 30.8582 8.38391L33.0531 6.12805C33.5631 5.60923 34.2531 5.31799 34.9724 5.31799C35.6917 5.31799 36.3817 5.60923 36.8917 6.12805L39.1404 8.43884C39.6477 8.96037 39.9324 9.66609 39.9324 10.4017C39.9324 11.1374 39.6477 11.8431 39.1404 12.3646L36.7771 14.7816C37.4583 16.0434 37.9805 17.3883 38.3311 18.7843H41.74C42.098 18.7833 42.4526 18.8546 42.7836 18.9941C43.1146 19.1335 43.4155 19.3383 43.6689 19.5969C43.9224 19.8554 44.1235 20.1626 44.2607 20.5007C44.3979 20.8389 44.4685 21.2014 44.4685 21.5675V24.8268C44.4666 25.5624 44.1801 26.2673 43.6715 26.7875C43.1628 27.3076 42.4736 27.6007 41.7543 27.6027H38.3132C37.9549 28.9838 37.4293 30.3136 36.7485 31.5614L39.1404 34.0187C39.6477 34.5402 39.9324 35.2459 39.9324 35.9816C39.9324 36.7172 39.6477 37.4229 39.1404 37.9445L36.8953 40.2443C36.3847 40.7633 35.6941 41.0546 34.9742 41.0546C34.2543 41.0546 33.5637 40.7633 33.0531 40.2443L30.783 37.9188C29.5308 38.7046 28.1838 39.3201 26.7761 39.7499V42.8956C26.7742 43.6312 26.4877 44.3362 25.9791 44.8563C25.4705 45.3765 24.7812 45.6696 24.0619 45.6715H20.8787C20.1594 45.6696 19.4701 45.3765 18.9615 44.8563C18.4529 44.3362 18.1664 43.6312 18.1645 42.8956V40.0538C16.6194 39.6964 15.1309 39.1196 13.7423 38.34L11.8803 40.2443C11.3694 40.7613 10.6797 41.0513 9.96102 41.0513C9.2423 41.0513 8.5526 40.7613 8.04175 40.2443L5.78231 37.9335C5.27589 37.4115 4.99171 36.7059 4.99171 35.9706C4.99171 35.2352 5.27589 34.5297 5.78231 34.0077L7.47241 32.2792C6.58716 30.8292 5.91628 29.2533 5.48153 27.6027H3.1827C2.46343 27.6007 1.77416 27.3076 1.26556 26.7875C0.756962 26.2673 0.470396 25.5624 0.468506 24.8268L0.468506 21.5675C0.468503 20.8306 0.754233 20.1238 1.26304 19.6021C1.77184 19.0803 2.46219 18.7862 3.1827 18.7843H5.45646C5.87903 17.1128 6.54408 15.5155 7.42944 14.0455L5.78231 12.3646C5.27675 11.8422 4.99317 11.1368 4.99317 10.4017C4.99317 9.66668 5.27675 8.96131 5.78231 8.43884L8.04175 6.12805C8.55169 5.60923 9.24173 5.31799 9.96102 5.31799C10.6803 5.31799 11.3704 5.60923 11.8803 6.12805L13.6707 7.95911C15.0747 7.14979 16.5859 6.55277 18.1573 6.18665V3.46936C18.1592 2.73248 18.4468 2.02644 18.9569 1.50607C19.4671 0.985703 20.1582 0.693479 20.8787 0.693481L24.0655 0.693481C24.7848 0.695415 25.474 0.988493 25.9826 1.50865C26.4912 2.02881 26.7778 2.73375 26.7797 3.46936V6.49426ZM21.9028 14.1261C23.6451 14.1261 25.3483 14.6545 26.7969 15.6446C28.2456 16.6347 29.3746 18.0419 30.0412 19.6882C30.7078 21.3346 30.882 23.1461 30.5418 24.8938C30.2017 26.6414 29.3624 28.2466 28.1301 29.5064C26.8978 30.7661 25.328 31.6238 23.619 31.971C21.9101 32.3182 20.1389 32.1393 18.5294 31.4569C16.9199 30.7745 15.5444 29.6192 14.5769 28.1372C13.6095 26.6553 13.0934 24.9132 13.0942 23.1312C13.0942 21.9483 13.322 20.7771 13.7647 19.6843C14.2075 18.5915 14.8564 17.5986 15.6744 16.7623C16.4924 15.9261 17.4634 15.2629 18.5321 14.8105C19.6008 14.3582 20.7462 14.1256 21.9028 14.1261Z" fill="#2C3C8C"/>
</g>
<defs>
<clipPath id="clip0_428_156">
<rect width="44" height="45" fill="white" transform="translate(0.468506 0.693481)"/>
</clipPath>
</defs>
</svg>
